<?xml version="1.0" standalone="no"?>
<!DOCTYPE svg PUBLIC "-//W3C//DTD SVG 20010904//EN"
 "http://www.w3.org/TR/2001/REC-SVG-20010904/DTD/svg10.dtd">
<svg version="1.0" xmlns="http://www.w3.org/2000/svg"
 width="1396.000000pt" height="288.000000pt" viewBox="0 0 1396.000000 288.000000"
 preserveAspectRatio="xMidYMid meet">

<g transform="translate(0.000000,288.000000) scale(0.100000,-0.100000)"
fill="#000000" stroke="none">
<path d="M743 2687 c-12 -6 -31 -28 -42 -48 -18 -32 -21 -54 -21 -163 0 -138
8 -167 56 -205 l27 -21 -37 0 c-54 0 -106 31 -106 64 0 8 -4 18 -10 21 -5 3
-10 40 -10 82 l0 76 -79 -5 c-81 -5 -111 -19 -111 -52 0 -9 -4 -16 -10 -16 -6
0 -10 -80 -10 -220 l0 -220 1065 0 1065 0 0 220 c0 140 -4 220 -10 220 -5 0
-10 7 -10 16 0 39 -29 49 -164 55 -72 3 -125 6 -118 7 17 3 16 84 -2 126 -28
67 -111 97 -166 59 -37 -25 -40 -32 -40 -105 0 -39 -4 -68 -10 -68 -6 0 -10
-35 -10 -85 0 -47 4 -85 9 -85 5 0 11 -13 14 -28 4 -18 17 -33 39 -44 l33 -17
-42 0 c-48 -1 -93 16 -93 36 0 7 -4 13 -10 13 -5 0 -10 9 -10 19 0 11 -4 23
-10 26 -5 3 -10 37 -10 76 l0 69 -505 0 -505 0 0 78 c0 42 -4 82 -8 87 -28 40
-102 55 -149 32z m107 -128 l0 -70 -47 3 -48 3 -3 44 c-6 78 2 91 53 91 l45 0
0 -71z m1309 1 l2 -70 -50 0 -51 0 0 70 0 70 48 0 49 0 2 -70z"/>
<path d="M12192 2635 c-77 -17 -137 -51 -185 -104 -85 -94 -116 -206 -124
-448 l-6 -173 -117 0 c-136 0 -145 -5 -145 -80 0 -75 9 -80 146 -80 l119 0 0
-677 c0 -399 4 -684 10 -693 6 -9 32 -16 78 -18 61 -4 73 -1 91 17 21 21 21
23 21 696 l0 675 188 0 c133 0 192 4 200 12 15 15 16 102 2 129 -10 18 -23 19
-200 19 l-190 0 0 153 c0 222 20 307 87 368 62 57 185 66 311 23 73 -26 76
-26 90 -8 9 13 12 36 9 73 -5 62 -30 92 -95 111 -61 19 -219 21 -290 5z"/>
<path d="M7108 2629 c-17 -9 -18 -74 -18 -1129 0 -1096 0 -1120 19 -1130 25
-13 112 -13 145 0 l26 10 0 1119 c0 1097 0 1121 -19 1131 -25 13 -131 13 -153
-1z"/>
<path d="M9358 2629 c-17 -9 -18 -74 -18 -1129 0 -1096 0 -1120 19 -1130 25
-13 112 -13 145 0 l26 10 0 545 0 545 108 108 c81 81 125 117 182 147 73 39
78 40 175 40 92 0 104 -2 154 -30 59 -32 112 -90 137 -151 46 -106 47 -124 51
-677 l4 -528 25 -10 c33 -12 106 -12 138 1 l26 10 0 510 c0 309 -4 540 -11
583 -20 140 -64 241 -137 319 -77 83 -160 122 -294 139 -179 22 -356 -48 -508
-203 l-50 -51 0 472 0 471 -26 10 c-33 13 -124 12 -146 -1z"/>
<path d="M3746 2489 c-425 -47 -716 -384 -777 -900 -15 -128 -7 -381 16 -497
67 -347 257 -595 527 -689 212 -74 446 -70 673 11 96 35 224 106 260 146 27
30 34 149 11 173 -21 20 -43 13 -123 -42 -159 -108 -301 -155 -473 -155 -137
0 -197 13 -309 66 -187 89 -308 276 -357 552 -22 122 -22 390 -1 509 21 112
74 270 118 344 55 94 171 204 259 245 102 48 166 62 290 61 163 0 311 -48 445
-143 99 -71 115 -77 137 -50 23 28 24 119 3 160 -31 60 -191 145 -345 184
-112 28 -244 38 -354 25z"/>
<path d="M8164 2485 c-213 -46 -359 -177 -409 -366 -17 -63 -19 -204 -4 -269
28 -121 126 -251 249 -332 30 -19 159 -88 285 -151 127 -64 255 -136 286 -160
105 -84 157 -196 145 -317 -15 -166 -95 -269 -255 -331 -86 -34 -270 -38 -382
-10 -87 22 -200 71 -279 121 -94 59 -120 47 -120 -54 0 -87 23 -119 120 -168
268 -134 608 -138 840 -10 253 140 360 471 235 728 -72 148 -167 221 -482 375
-224 108 -297 154 -361 223 -68 74 -87 124 -87 231 0 78 4 97 28 147 34 69 90
120 166 150 49 20 74 23 191 23 123 -1 141 -3 205 -28 39 -15 105 -48 147 -72
43 -25 84 -45 92 -45 24 0 36 34 36 99 0 49 -4 65 -25 89 -34 40 -137 89 -251
118 -111 28 -266 32 -370 9z"/>
<path d="M4912 2298 c-8 -8 -12 -67 -12 -200 l0 -188 -119 0 c-133 0 -139 -3
-148 -69 -4 -28 -1 -48 11 -66 16 -24 19 -25 136 -25 l120 0 0 -502 c0 -281 4
-529 10 -563 26 -159 76 -240 184 -295 69 -35 69 -35 205 -35 119 0 142 3 184
22 52 24 67 50 67 113 0 80 -10 83 -127 44 -71 -24 -84 -26 -140 -16 -124 20
-167 85 -184 274 -5 62 -8 302 -7 533 l3 420 210 3 c200 2 211 3 228 23 21 26
22 87 1 117 -15 22 -19 22 -230 22 l-214 0 0 188 c0 133 -4 192 -12 200 -7 7
-41 12 -83 12 -42 0 -76 -5 -83 -12z"/>
<path d="M12888 2299 c-16 -9 -18 -30 -18 -199 l0 -190 -119 0 c-137 0 -146
-5 -146 -80 0 -75 9 -80 146 -80 l119 0 0 -489 c0 -295 4 -520 11 -567 22
-162 75 -248 183 -304 68 -35 70 -35 200 -35 200 0 256 29 256 130 0 83 -17
90 -120 49 -60 -24 -163 -23 -213 1 -22 10 -50 35 -64 55 -50 78 -53 105 -53
653 l0 507 215 0 c243 0 235 -3 235 83 0 75 -5 77 -243 77 l-207 0 -1 168 c-1
183 -3 212 -22 224 -18 11 -139 9 -159 -3z"/>
<path d="M6461 1930 c-99 -21 -195 -93 -286 -214 l-50 -67 -5 128 -5 128 -42
9 c-26 5 -60 5 -85 0 l-43 -9 -3 -763 -2 -762 26 -10 c33 -13 105 -13 138 0
l26 10 0 509 0 510 59 88 c126 187 225 268 331 267 30 0 90 -11 133 -24 95
-28 97 -27 97 77 0 64 -3 74 -22 87 -51 32 -192 51 -267 36z"/>
<path d="M11008 1854 c-74 -125 -65 -117 -161 -139 -48 -12 -92 -26 -98 -32
-9 -9 1 -26 39 -71 28 -33 58 -65 67 -72 13 -11 14 -30 9 -121 -5 -84 -4 -109
5 -109 7 0 49 16 94 35 44 19 86 35 92 35 6 0 51 -16 99 -36 55 -22 92 -32 98
-26 6 6 5 47 -1 107 l-11 97 65 75 c36 41 65 78 65 83 0 9 -91 40 -119 40 -9
0 -32 5 -51 10 -30 8 -43 22 -85 95 -28 46 -55 85 -62 85 -6 0 -27 -25 -45
-56z"/>
<path d="M613 1755 c-9 -9 -13 -48 -13 -114 0 -81 3 -100 16 -105 9 -3 60 -6
115 -6 81 0 99 3 99 15 0 8 5 15 10 15 6 0 10 37 10 90 0 53 -4 90 -10 90 -5
0 -10 7 -10 15 0 21 -199 21 -217 0z"/>
<path d="M1103 1755 c-14 -15 -19 -179 -7 -209 5 -13 25 -16 115 -16 l109 0 0
104 c0 57 -3 111 -6 120 -8 22 -192 23 -211 1z"/>
<path d="M1597 1763 c-4 -3 -7 -57 -7 -120 l0 -113 109 0 c90 0 110 3 115 16
3 9 6 56 6 106 0 64 -4 93 -14 104 -11 10 -40 14 -109 14 -51 0 -97 -3 -100
-7z"/>
<path d="M2080 1755 c0 -8 -4 -15 -10 -15 -6 0 -10 -37 -10 -91 0 -57 4 -88
10 -84 6 3 10 -3 10 -14 0 -20 6 -21 99 -21 55 0 106 3 115 6 22 8 23 198 2
220 -22 21 -216 20 -216 -1z"/>
<path d="M11016 1314 l-29 -16 7 -442 7 -441 25 -22 c31 -28 44 -29 78 -2 l26
20 0 403 c0 222 -3 423 -6 448 -5 39 -10 46 -38 56 -39 14 -34 15 -70 -4z"/>
<path d="M600 1205 l0 -115 111 0 c82 0 114 4 125 14 19 19 19 173 0 199 -11
14 -30 17 -125 17 l-111 0 0 -115z"/>
<path d="M1096 1304 c-3 -9 -6 -60 -6 -115 l0 -99 115 0 115 0 0 115 0 115
-109 0 c-90 0 -110 -3 -115 -16z"/>
<path d="M1590 1205 l0 -115 109 0 c90 0 110 3 115 16 8 20 8 178 0 198 -5 13
-25 16 -115 16 l-109 0 0 -115z"/>
<path d="M2500 930 c0 -5 -7 -10 -16 -10 -8 0 -12 -4 -9 -10 4 -7 -51 -10
-157 -10 -109 0 -158 -4 -148 -10 11 -7 5 -10 -23 -10 -27 0 -45 -7 -62 -25
-24 -24 -25 -28 -25 -185 0 -100 -4 -160 -10 -160 -5 0 -10 -12 -10 -26 0 -14
-4 -23 -9 -20 -5 3 -11 -3 -14 -14 -11 -41 41 -16 114 56 244 241 369 371 369
384 0 5 5 10 10 10 6 0 10 9 10 20 0 11 -4 20 -10 20 -5 0 -10 -4 -10 -10z"/>
<path d="M612 872 c-9 -6 -12 -37 -10 -118 l3 -109 108 -3 c136 -3 137 -3 137
112 0 51 -4 86 -10 86 -5 0 -10 8 -10 19 0 17 -9 19 -102 20 -57 1 -109 -3
-116 -7z"/>
<path d="M1107 868 c-15 -12 -17 -27 -15 -118 l3 -105 113 -3 113 -3 -3 118
-3 118 -95 3 c-66 2 -101 -1 -113 -10z"/>
<path d="M1603 873 c-9 -3 -13 -37 -13 -119 l0 -115 113 3 112 3 3 104 c2 67
-1 108 -9 117 -8 10 -36 14 -103 13 -50 0 -97 -3 -103 -6z"/>
</g>
</svg>
